<svg width="127" height="64" viewBox="0 0 127 64" fill="none" xmlns="http://www.w3.org/2000/svg">
<path d="M26.2222 57.1677C28.5595 57.1677 30.797 55.9332 31.7959 53.8425L29.4186 52.5085C28.7993 53.6633 27.7205 54.4 26.1023 54.4C23.8448 54.4 22.2466 52.6279 22.2466 50.1988C22.2466 47.7696 23.8648 45.9975 26.1023 45.9975C27.7205 45.9975 28.7593 46.7342 29.4186 47.8891L31.7959 46.555C30.797 44.4644 28.5595 43.2299 26.2222 43.2299C22.3066 43.2299 19.25 46.3161 19.25 50.1988C19.25 54.0814 22.3066 57.1677 26.2222 57.1677ZM37.6644 57.1477C39.0229 57.1477 40.1017 56.6101 40.8009 55.7341V56.8889H43.4979V51.931C43.4979 48.9643 41.2204 46.7342 38.1239 46.7342C35.0873 46.7342 32.7699 49.1037 32.7699 51.931C32.7699 54.7982 34.7877 57.1477 37.6644 57.1477ZM38.1239 54.4996C36.6656 54.4996 35.6067 53.3447 35.6067 51.9509C35.6067 50.5572 36.6656 49.4023 38.1239 49.4023C39.5823 49.4023 40.6611 50.5572 40.6611 51.9509C40.6611 53.3447 39.5823 54.4996 38.1239 54.4996ZM58.3383 46.6745C56.5603 46.6745 55.1619 47.5108 54.5426 48.8647C53.9632 47.5108 52.5848 46.6745 50.6869 46.6745C47.4905 46.6745 45.8723 48.9842 45.8723 51.7319V56.8889H48.7092V52.1899C48.7092 50.6965 49.3285 49.4222 50.9067 49.4222C52.4449 49.4222 53.1042 50.6766 53.1042 52.1899V56.8889H55.941V52.17C55.941 50.6766 56.6003 49.4222 58.1385 49.4222C59.6968 49.4222 60.3561 50.6965 60.3561 52.2098V56.8889H63.1929V51.7319C63.1929 48.9842 61.5547 46.6745 58.3383 46.6745ZM70.4712 57.1477C72.5689 57.1477 74.2071 56.1323 75.0661 54.3602L72.8885 53.2651C72.429 54.181 71.5301 54.6987 70.4513 54.6987C69.0329 54.6987 68.014 53.8226 67.8142 52.5085H75.166V51.6722C75.166 48.9842 73.348 46.6745 70.2115 46.6745C67.155 46.6745 65.0773 49.024 65.0773 51.8713C65.0773 55.0173 67.3947 57.1477 70.4712 57.1477ZM67.9341 50.9355C68.1339 49.9399 68.953 49.1435 70.1916 49.1435C71.3902 49.1435 72.2293 49.92 72.3491 50.9355H67.9341ZM77.6429 42.4932V56.8889H80.4797V42.4932H77.6429ZM88.1468 57.1477C90.2444 57.1477 91.8826 56.1323 92.7416 54.3602L90.5641 53.2651C90.1046 54.181 89.2056 54.6987 88.1268 54.6987C86.7084 54.6987 85.6896 53.8226 85.4898 52.5085H92.8415V51.6722C92.8415 48.9842 91.0236 46.6745 87.8871 46.6745C84.8305 46.6745 82.7529 49.024 82.7529 51.8713C82.7529 55.0173 85.0703 57.1477 88.1468 57.1477ZM85.6096 50.9355C85.8094 49.9399 86.6285 49.1435 87.8671 49.1435C89.0658 49.1435 89.9048 49.92 90.0247 50.9355H85.6096ZM99.7733 57.1477C102.81 57.1477 105.147 54.7982 105.147 51.931C105.147 49.1037 102.83 46.7342 99.7733 46.7342C96.7567 46.7342 94.4193 49.0837 94.4193 51.931C94.4193 54.7982 96.7367 57.1477 99.7733 57.1477ZM99.7733 54.4996C98.3149 54.4996 97.2561 53.3447 97.2561 51.9509C97.2561 50.5572 98.3149 49.4023 99.7733 49.4023C101.232 49.4023 102.31 50.5572 102.31 51.9509C102.31 53.3447 101.232 54.4996 99.7733 54.4996ZM112.188 49.5019C113.807 49.5019 114.546 50.7961 114.546 52.3093V56.8889H117.382V51.9709C117.382 49.0837 115.644 46.7541 112.188 46.7541C108.732 46.7541 107.034 49.1037 107.034 51.9709V56.8889H109.871V52.3093C109.871 50.7961 110.59 49.5019 112.188 49.5019Z" fill="#42BBFF"/>
<path d="M28.572 23.7598C26.7382 22.4071 22.2849 19.9562 19.1415 20.9738C15.212 22.2457 8.68314 25.94 5.66051 21.64C4.69329 19.6049 6.22474 19.3385 7.11138 19.4596C4.93509 18.8136 1.19913 17.2429 3.66559 16.1286C4.1492 15.8862 4.20965 14.3721 7.41363 12.7974C7.77635 12.4946 7.83679 9.46631 11.4639 6.86201C14.1239 6.07465 14.4261 8.255 15.091 8.13387C15.756 8.01274 19.6251 7.10427 22.8894 8.13387C23.373 8.13387 29.7206 -0.224152 31.9573 1.71394C32.5013 2.13789 33.7104 3.28864 34.315 3.8943C34.4157 2.96563 35.4635 1.27787 38.8489 1.95621C39.9974 2.19847 41.0251 3.40977 41.6298 3.22807C41.4281 3.3492 40.9527 3.60358 40.6624 3.65204C40.8438 3.83374 41.6298 4.076 41.932 4.74221C42.1737 5.22673 42.4156 5.34786 42.5364 5.34786C42.5969 5.34786 41.2065 5.59013 40.9648 5.28731C40.7229 4.98447 41.6901 7.58879 41.267 9.70858C41.146 10.3748 42.7178 11.041 43.4433 12.6157C43.8301 13.3425 44.209 13.928 44.3501 14.1298C43.8463 13.7463 42.6937 12.9912 42.1134 13.0397C42.6575 13.2214 43.8664 14.1783 44.3501 16.5525C44.0881 16.068 43.419 15.111 42.8387 15.1595C43.544 15.7046 44.6281 18.0545 43.3224 23.0935C43.0805 24.0626 41.2065 26.3036 41.146 27.7571C41.0856 29.2106 44.8337 30.8459 45.6195 31.815C46.4054 32.7841 51.423 35.3277 53.7807 32.7841C56.1383 30.2403 59.4631 20.3075 63.1507 20.9738C66.8384 21.64 72.9441 24.1837 74.9994 19.4596C77.0548 14.7355 90.9588 2.13789 100.45 12.0706C109.941 22.0033 121.79 33.1474 123.845 38.4166C125.9 43.6858 126.384 45.6845 123.845 51.862C123.301 53.3157 122.031 54.6482 125.054 56.889" stroke="#42BBFF" stroke-width="1.5" stroke-linecap="round"/>
</svg>
