<svg width="28" height="28" viewBox="0 0 28 28" fill="none" xmlns="http://www.w3.org/2000/svg">
<path fill-rule="evenodd" clip-rule="evenodd" d="M11.5238 17.7402C7.03915 17.7402 3.20898 18.4181 3.20898 21.1341C3.20898 23.8489 7.01465 24.5524 11.5238 24.5524C16.0085 24.5524 19.8387 23.8734 19.8387 21.1586C19.8387 18.4437 16.033 17.7402 11.5238 17.7402Z" stroke="#ADB3CC" stroke-width="1.5" stroke-linecap="round" stroke-linejoin="round"/>
<path fill-rule="evenodd" clip-rule="evenodd" d="M11.5237 13.8667C14.4823 13.8667 16.853 11.4948 16.853 8.53734C16.853 5.57867 14.4823 3.20801 11.5237 3.20801C8.56617 3.20801 6.19434 5.57867 6.19434 8.53734C6.19434 11.4948 8.56617 13.8667 11.5237 13.8667Z" stroke="#ADB3CC" stroke-width="1.5" stroke-linecap="round" stroke-linejoin="round"/>
<path d="M22.4046 10.1138V14.7921" stroke="#ADB3CC" stroke-width="1.5" stroke-linecap="round" stroke-linejoin="round"/>
<path d="M24.7922 12.453H20.0205" stroke="#ADB3CC" stroke-width="1.5" stroke-linecap="round" stroke-linejoin="round"/>
</svg>
