<svg width="28" height="28" viewBox="0 0 28 28" fill="none" xmlns="http://www.w3.org/2000/svg">
<path fill-rule="evenodd" clip-rule="evenodd" d="M14.3359 4.67213L14.002 4.6665C9.17093 4.6665 4.81715 8.07677 2.40408 13.6566C2.30932 13.8758 2.30932 14.1239 2.40408 14.343L2.57129 14.7194C4.95379 19.9418 9.07102 23.1749 13.6634 23.3275L13.9973 23.3332C18.8284 23.3332 23.1822 19.9229 25.5953 14.343C25.6912 14.1212 25.69 13.8696 25.5918 13.6487L25.4293 13.2831C23.041 8.0509 18.922 4.82455 14.3359 4.67213ZM14.0102 6.40416L14.2889 6.41016L14.6004 6.42636C18.3305 6.69048 21.761 9.45629 23.8335 13.9988L23.8227 14.0268C21.6982 18.667 18.1494 21.4493 14.3017 21.589L14.0043 21.5934L13.7044 21.5894L13.3937 21.5732C9.77951 21.3172 6.44711 18.7066 4.36201 14.4195L4.16467 13.9988L4.34735 13.6104C6.54605 9.06851 10.1397 6.40515 14.0102 6.40416ZM13.9991 9.46554C11.4786 9.46554 9.43626 11.4952 9.43626 14.0001C9.43626 16.504 11.4788 18.5334 13.9991 18.5334C16.5195 18.5334 18.5631 16.5039 18.5631 14.0001C18.5631 11.4953 16.5197 9.46554 13.9991 9.46554ZM13.9991 11.2042C15.5533 11.2042 16.8131 12.4556 16.8131 14.0001C16.8131 15.5435 15.5532 16.7947 13.9991 16.7947C12.4453 16.7947 11.1863 15.5438 11.1863 14.0001C11.1863 12.4553 12.4452 11.2042 13.9991 11.2042Z" fill="#ADB3CC"/>
</svg>
