<svg width="28" height="28" viewBox="0 0 28 28" fill="none" xmlns="http://www.w3.org/2000/svg">
<path fill-rule="evenodd" clip-rule="evenodd" d="M13.9273 4.01025C10.9458 4.01025 8.55102 6.40507 8.55102 9.38655C8.55102 12.3689 10.9456 14.7639 13.9273 14.7639C16.909 14.7639 19.3036 12.3689 19.3036 9.38655C19.3036 6.40507 16.9088 4.01025 13.9273 4.01025ZM13.9273 5.76025C15.9423 5.76025 17.5536 7.37157 17.5536 9.38655C17.5536 11.4025 15.9424 13.0139 13.9273 13.0139C11.9122 13.0139 10.301 11.4025 10.301 9.38655C10.301 7.37157 11.9123 5.76025 13.9273 5.76025ZM7.33825 5.10911C7.8215 5.10911 8.21325 5.50086 8.21325 5.98411C8.21325 6.46736 7.8215 6.85911 7.33825 6.85911C5.95182 6.85911 4.82739 7.98305 4.82739 9.3689C4.82739 10.7548 5.95182 11.8787 7.33825 11.8787C7.8215 11.8787 8.21325 12.2704 8.21325 12.7537C8.21325 13.2369 7.8215 13.6287 7.33825 13.6287C4.98549 13.6287 3.07739 11.7214 3.07739 9.3689C3.07739 7.01638 4.98549 5.10911 7.33825 5.10911ZM24.7881 9.3689C24.7881 7.01638 22.88 5.10911 20.5273 5.10911C20.044 5.10911 19.6523 5.50086 19.6523 5.98411C19.6523 6.46736 20.044 6.85911 20.5273 6.85911C21.9137 6.85911 23.0381 7.98305 23.0381 9.3689C23.0381 10.7548 21.9137 11.8787 20.5273 11.8787C20.044 11.8787 19.6523 12.2704 19.6523 12.7537C19.6523 13.2369 20.044 13.6287 20.5273 13.6287C22.88 13.6287 24.7881 11.7214 24.7881 9.3689ZM23.9117 15.814C23.3515 15.6875 22.7528 15.6011 22.1441 15.5591C21.662 15.5259 21.2442 15.8897 21.2109 16.3718C21.1777 16.8539 21.5416 17.2717 22.0237 17.305C22.5446 17.3409 23.0551 17.4146 23.5515 17.5263C24.3235 17.6778 24.8268 17.9289 24.9517 18.1906C25.0456 18.3882 25.0456 18.6205 24.9508 18.8205C24.8275 19.0796 24.3284 19.3294 23.5674 19.4859C23.094 19.5833 22.7892 20.0459 22.8866 20.5192C22.9839 20.9926 23.4465 21.2974 23.9199 21.2001C25.1778 20.9414 26.0992 20.4802 26.5315 19.5713C26.852 18.8956 26.852 18.112 26.5316 17.438C26.0962 16.5257 25.1589 16.0581 23.9117 15.814ZM6.6546 16.3718C6.62135 15.8897 6.20358 15.5259 5.72147 15.5591C5.11272 15.6011 4.51402 15.6875 3.92978 15.819L3.68893 15.87C2.58337 16.1226 1.73993 16.5868 1.33508 17.4379C1.01325 18.1113 1.01325 18.8963 1.33542 19.5721C1.76583 20.4799 2.68724 20.9413 3.94565 21.2001C4.419 21.2974 4.88163 20.9926 4.97896 20.5192C5.0763 20.0459 4.77148 19.5833 4.29814 19.4859C3.53737 19.3295 3.03876 19.0798 2.91589 18.8206C2.82015 18.6198 2.82015 18.3889 2.91471 18.1911C3.03953 17.9287 3.54232 17.6777 4.29001 17.5314L4.67877 17.4518C5.06632 17.3801 5.45117 17.3319 5.84188 17.305C6.32398 17.2717 6.68785 16.8539 6.6546 16.3718ZM6.0282 20.0485C6.0282 17.2649 8.90746 16.286 13.9273 16.286L14.283 16.2876C19.093 16.3328 21.8264 17.314 21.8264 20.0282C21.8264 22.6785 19.2136 23.6933 14.6296 23.7839L13.9273 23.7907C8.89595 23.7907 6.0282 22.829 6.0282 20.0485ZM20.0764 20.0282C20.0764 18.7325 17.9991 18.036 13.9273 18.036C9.85948 18.036 7.7782 18.7436 7.7782 20.0485C7.7782 21.3443 9.85485 22.0407 13.9273 22.0407C17.9939 22.0407 20.0764 21.3324 20.0764 20.0282Z" fill="#DDEFFA"/>
</svg>
