<svg width="28" height="28" viewBox="0 0 28 28" fill="none" xmlns="http://www.w3.org/2000/svg">
<path fill-rule="evenodd" clip-rule="evenodd" d="M19.0849 2.3335H8.9144C4.96485 2.3335 2.33301 5.15671 2.33301 9.20886V18.7915C2.33301 22.8474 4.95791 25.6668 8.9144 25.6668H19.0849C23.0414 25.6668 25.6663 22.8474 25.6663 18.7915V9.20886C25.6663 5.15292 23.0414 2.3335 19.0849 2.3335ZM8.9144 3.9614H19.0849C22.1153 3.9614 24.0384 6.02702 24.0384 9.20886V18.7915C24.0384 21.9733 22.1153 24.0389 19.0849 24.0389H8.9144C5.88401 24.0389 3.96091 21.9733 3.96091 18.7915V9.20886C3.96091 6.03124 5.89044 3.9614 8.9144 3.9614ZM14.8475 8.37559C14.7936 7.97829 14.4531 7.67208 14.041 7.67208C13.5915 7.67208 13.2271 8.0365 13.2271 8.48603V19.4936L13.2345 19.6041C13.2884 20.0014 13.6289 20.3076 14.041 20.3076C14.4906 20.3076 14.855 19.9432 14.855 19.4936V8.48603L14.8475 8.37559ZM9.78294 11.9381C9.72904 11.5408 9.38849 11.2346 8.97642 11.2346C8.52688 11.2346 8.16247 11.599 8.16247 12.0485V19.4936L8.1699 19.6041C8.22379 20.0014 8.56435 20.3076 8.97642 20.3076C9.42595 20.3076 9.79037 19.9432 9.79037 19.4936V12.0485L9.78294 11.9381ZM19.0229 15.1688C19.435 15.1688 19.7756 15.475 19.8295 15.8723L19.8369 15.9828V19.4936C19.8369 19.9432 19.4725 20.3076 19.0229 20.3076C18.6109 20.3076 18.2703 20.0014 18.2164 19.6041L18.209 19.4936V15.9828C18.209 15.5332 18.5734 15.1688 19.0229 15.1688Z" fill="#ADB3CC"/>
</svg>
