<svg width="20" height="20" viewBox="0 0 20 20" fill="none" xmlns="http://www.w3.org/2000/svg">
<path opacity="0.4" d="M15.6743 7.51734C15.2981 7.51734 14.7997 7.509 14.1792 7.509C12.6659 7.509 11.4216 6.2565 11.4216 4.729V2.049C11.4216 1.83817 11.2533 1.6665 11.0445 1.6665H6.63668C4.57963 1.6665 2.91699 3.35484 2.91699 5.424V14.4032C2.91699 16.574 4.65884 18.3332 6.80831 18.3332H13.3722C15.4218 18.3332 17.0837 16.6557 17.0837 14.5848V7.89234C17.0837 7.68067 16.9162 7.50984 16.7066 7.51067C16.3542 7.51317 15.9318 7.51734 15.6743 7.51734Z" fill="#ADB3CC"/>
<path opacity="0.4" d="M13.4039 2.13947C13.1547 1.88031 12.7197 2.05864 12.7197 2.41781V4.61531C12.7197 5.53697 13.4789 6.29531 14.4006 6.29531C14.9814 6.30197 15.7881 6.30364 16.4731 6.30197C16.8239 6.30114 17.0022 5.88197 16.7589 5.62864C15.8797 4.71447 14.3056 3.07614 13.4039 2.13947Z" fill="#ADB3CC"/>
<path fill-rule="evenodd" clip-rule="evenodd" d="M7.4784 9.48937H10.2992C10.6417 9.48937 10.9201 9.21187 10.9201 8.86937C10.9201 8.52687 10.6417 8.24854 10.2992 8.24854H7.4784C7.1359 8.24854 6.8584 8.52687 6.8584 8.86937C6.8584 9.21187 7.1359 9.48937 7.4784 9.48937ZM7.47848 13.6512H12.0151C12.3576 13.6512 12.636 13.3737 12.636 13.0312C12.636 12.6887 12.3576 12.4104 12.0151 12.4104H7.47848C7.13598 12.4104 6.85848 12.6887 6.85848 13.0312C6.85848 13.3737 7.13598 13.6512 7.47848 13.6512Z" fill="#ADB3CC"/>
</svg>
