<svg width="20" height="20" viewBox="0 0 20 20" fill="none" xmlns="http://www.w3.org/2000/svg">
<g clip-path="url(#clip0_1031_5608)">
<path d="M10.0003 13.3332C10.8844 13.3332 11.7322 12.982 12.3573 12.3569C12.9825 11.7317 13.3337 10.8839 13.3337 9.99984C13.3337 9.11578 12.9825 8.26794 12.3573 7.64281C11.7322 7.01769 10.8844 6.6665 10.0003 6.6665C9.11627 6.6665 8.26842 7.01769 7.6433 7.64281C7.01818 8.26794 6.66699 9.11578 6.66699 9.99984C6.66699 10.8839 7.01818 11.7317 7.6433 12.3569C8.26842 12.982 9.11627 13.3332 10.0003 13.3332V13.3332Z" stroke="#E6A500" stroke-width="2" stroke-linecap="round" stroke-linejoin="round"/>
<path d="M14.5837 5.4165L15.8337 4.1665M13.3337 10.3215C12.8303 10.6937 12.2101 10.8728 11.5858 10.8263C10.9616 10.7797 10.3748 10.5107 9.93211 10.068C9.48947 9.62541 9.22042 9.03859 9.17391 8.41433C9.1274 7.79007 9.30651 7.16986 9.67866 6.6665L13.3337 10.3215ZM10.0003 1.6665V3.33317V1.6665ZM10.0003 16.6665V18.3332V16.6665ZM4.16699 4.1665L5.41699 5.4165L4.16699 4.1665ZM14.5837 14.5832L15.8337 15.8332L14.5837 14.5832ZM1.66699 9.99984H3.33366H1.66699ZM16.667 9.99984H18.3337H16.667ZM4.16699 15.8332L5.41699 14.5832L4.16699 15.8332Z" stroke="#E6A500" stroke-width="1.5" stroke-linecap="round" stroke-linejoin="round"/>
</g>
<defs>
<clipPath id="clip0_1031_5608">
<rect width="20" height="20" fill="white"/>
</clipPath>
</defs>
</svg>
