<svg width="20" height="20" viewBox="0 0 20 20" fill="none" xmlns="http://www.w3.org/2000/svg">
<path opacity="0.4" d="M9.99232 15.5178L4.58255 18.2199C4.17401 18.4417 3.66441 18.2936 3.43591 17.8868C3.36918 17.7589 3.33389 17.6167 3.33301 17.4722V11.4238C3.33301 12.0235 3.67112 12.3936 4.5605 12.8082L9.99232 15.5178Z" fill="#ADB3CC"/>
<path fill-rule="evenodd" clip-rule="evenodd" d="M7.41239 1.6665H12.5576C14.8141 1.6665 16.6443 2.55488 16.6663 4.82764V17.4722C16.6654 17.6143 16.6301 17.7541 16.5634 17.8794C16.4563 18.0837 16.2713 18.2354 16.0509 18.2996C15.8305 18.3638 15.5937 18.3351 15.3947 18.2199L9.99232 15.5178L4.5605 12.8082C3.67112 12.3937 3.33301 12.0235 3.33301 11.4238V4.82764C3.33301 2.55488 5.16322 1.6665 7.41239 1.6665ZM6.85377 8.0184H13.1235C13.4848 8.0184 13.7777 7.72341 13.7777 7.35952C13.7777 6.99563 13.4848 6.70064 13.1235 6.70064H6.85377C6.49248 6.70064 6.1996 6.99563 6.1996 7.35952C6.1996 7.72341 6.49248 8.0184 6.85377 8.0184Z" fill="#ADB3CC"/>
</svg>
