<svg width="24" height="24" viewBox="0 0 24 24" fill="none" xmlns="http://www.w3.org/2000/svg">
<path fill-rule="evenodd" clip-rule="evenodd" d="M7.35811 3.23039C7.064 3.01132 6.64575 3.03566 6.37923 3.30342L2.30145 7.40008L2.22903 7.48437C2.01185 7.77848 2.03702 8.19509 2.3039 8.46074L2.38819 8.53316C2.6823 8.75034 3.09891 8.72517 3.36456 8.45829L6.16067 5.64869V17.4509L6.16752 17.5526C6.21718 17.9187 6.53098 18.2009 6.91067 18.2009C7.32489 18.2009 7.66067 17.8651 7.66067 17.4509V5.64882L10.457 8.45829L10.541 8.5311C10.8341 8.74963 11.2508 8.72639 11.5177 8.46074C11.8112 8.16852 11.8123 7.69365 11.5201 7.40008L7.44234 3.30342L7.43714 3.29891C7.41425 3.27635 7.38992 3.25525 7.3643 3.23576L7.35811 3.23039ZM17.5823 6.44486C17.5326 6.07878 17.2188 5.79663 16.8391 5.79663C16.4249 5.79663 16.0891 6.13242 16.0891 6.54663V18.3483L13.2928 15.5392L13.2088 15.4664C12.9157 15.2478 12.499 15.2711 12.2321 15.5367C11.9386 15.829 11.9375 16.3038 12.2297 16.5974L16.3075 20.6941L16.3127 20.6986C16.3355 20.7211 16.3599 20.7422 16.3855 20.7617L16.3917 20.7671C16.6858 20.9862 17.104 20.9618 17.3706 20.6941L21.4483 16.5974L21.5208 16.5131C21.7379 16.219 21.7128 15.8024 21.4459 15.5367C21.1523 15.2445 20.6774 15.2456 20.3852 15.5392L17.5891 18.3474V6.54663L17.5823 6.44486Z" fill="#DDEFFA"/>
</svg>
