<svg width="20" height="20" viewBox="0 0 20 20" fill="none" xmlns="http://www.w3.org/2000/svg">
<path opacity="0.4" d="M13.617 1.6665H6.39199C3.56699 1.6665 1.66699 3.64984 1.66699 6.59984V13.4082C1.66699 16.3498 3.56699 18.3332 6.39199 18.3332H13.617C16.442 18.3332 18.3337 16.3498 18.3337 13.4082V6.59984C18.3337 3.64984 16.442 1.6665 13.617 1.6665Z" fill="#ADB3CC"/>
<path fill-rule="evenodd" clip-rule="evenodd" d="M9.27077 6.82438C9.27077 7.22605 9.5966 7.55355 9.99577 7.55355C10.4066 7.55355 10.7333 7.22605 10.7333 6.82438C10.7333 6.42271 10.4066 6.09521 10.0041 6.09521C9.59994 6.09521 9.27077 6.42271 9.27077 6.82438ZM10.7249 9.46838C10.7249 9.06672 10.3974 8.73921 9.99577 8.73921C9.5941 8.73921 9.2666 9.06672 9.2666 9.46838V13.1517C9.2666 13.5534 9.5941 13.8809 9.99577 13.8809C10.3974 13.8809 10.7249 13.5534 10.7249 13.1517V9.46838Z" fill="#ADB3CC"/>
</svg>
