<svg width="20" height="20" viewBox="0 0 20 20" fill="none" xmlns="http://www.w3.org/2000/svg">
<path d="M10.0095 12.3587C8.67239 12.3587 7.59082 11.3171 7.59082 10.0087C7.59082 8.70039 8.67239 7.65039 10.0095 7.65039C11.3465 7.65039 12.4025 8.70039 12.4025 10.0087C12.4025 11.3171 11.3465 12.3587 10.0095 12.3587Z" fill="#ADB3CC"/>
<path opacity="0.4" d="M17.6915 11.9753C17.5296 11.7253 17.2997 11.4753 17.0016 11.317C16.7632 11.2003 16.6099 11.0087 16.4736 10.7837C16.0393 10.067 16.2948 9.12533 17.0187 8.70033C17.8703 8.22533 18.1428 7.16699 17.6489 6.34199L17.0783 5.35866C16.5928 4.53366 15.5283 4.24199 14.6852 4.72533C13.9358 5.12533 12.9734 4.85866 12.5391 4.15033C12.4028 3.91699 12.3262 3.66699 12.3432 3.41699C12.3688 3.09199 12.2666 2.78366 12.1133 2.53366C11.7982 2.01699 11.2276 1.66699 10.5974 1.66699H9.39656C8.77487 1.68366 8.20428 2.01699 7.88918 2.53366C7.72737 2.78366 7.63369 3.09199 7.65072 3.41699C7.66775 3.66699 7.5911 3.91699 7.45484 4.15033C7.02051 4.85866 6.05817 5.12533 5.31725 4.72533C4.46562 4.24199 3.4096 4.53366 2.91565 5.35866L2.34506 6.34199C1.85963 7.16699 2.13215 8.22533 2.97526 8.70033C3.69915 9.12533 3.95464 10.067 3.52882 10.7837C3.38405 11.0087 3.23075 11.2003 2.9923 11.317C2.70274 11.4753 2.44725 11.7253 2.31099 11.9753C1.99589 12.492 2.01292 13.142 2.32802 13.6837L2.91565 14.6837C3.23075 15.217 3.81838 15.5503 4.43155 15.5503C4.72111 15.5503 5.06176 15.467 5.33428 15.3003C5.54719 15.1587 5.80268 15.1087 6.08372 15.1087C6.92683 15.1087 7.63369 15.8003 7.65072 16.6253C7.65072 17.5837 8.43422 18.3337 9.42211 18.3337H10.5803C11.5597 18.3337 12.3432 17.5837 12.3432 16.6253C12.3688 15.8003 13.0756 15.1087 13.9187 15.1087C14.1912 15.1087 14.4467 15.1587 14.6682 15.3003C14.9407 15.467 15.2728 15.5503 15.5709 15.5503C16.1755 15.5503 16.7632 15.217 17.0783 14.6837L17.6744 13.6837C17.981 13.1253 18.0066 12.492 17.6915 11.9753Z" fill="#ADB3CC"/>
</svg>
