<svg width="20" height="20" viewBox="0 0 20 20" fill="none" xmlns="http://www.w3.org/2000/svg">
<path opacity="0.4" d="M13.3967 1.6665H16.2183C17.3869 1.6665 18.3338 2.62138 18.3338 3.79981V6.64527C18.3338 7.8237 17.3869 8.77858 16.2183 8.77858H13.3967C12.2281 8.77858 11.2812 7.8237 11.2812 6.64527V3.79981C11.2812 2.62138 12.2281 1.6665 13.3967 1.6665Z" fill="#42BBFF"/>
<path fill-rule="evenodd" clip-rule="evenodd" d="M3.78243 1.6665H6.60407C7.77262 1.6665 8.7195 2.62138 8.7195 3.79981V6.64527C8.7195 7.8237 7.77262 8.77858 6.60407 8.77858H3.78243C2.61387 8.77858 1.66699 7.8237 1.66699 6.64527V3.79981C1.66699 2.62138 2.61387 1.6665 3.78243 1.6665ZM3.78243 11.2211H6.60407C7.77262 11.2211 8.7195 12.176 8.7195 13.3544V16.1999C8.7195 17.3775 7.77262 18.3332 6.60407 18.3332H3.78243C2.61387 18.3332 1.66699 17.3775 1.66699 16.1999V13.3544C1.66699 12.176 2.61387 11.2211 3.78243 11.2211ZM16.2182 11.2211H13.3966C12.228 11.2211 11.2811 12.176 11.2811 13.3544V16.1999C11.2811 17.3775 12.228 18.3332 13.3966 18.3332H16.2182C17.3868 18.3332 18.3337 17.3775 18.3337 16.1999V13.3544C18.3337 12.176 17.3868 11.2211 16.2182 11.2211Z" fill="#42BBFF"/>
</svg>
