<svg width="20" height="20" viewBox="0 0 20 20" fill="none" xmlns="http://www.w3.org/2000/svg">
<path opacity="0.4" d="M17.7764 6.20213C17.4273 5.98216 16.9981 5.9627 16.6322 6.14883L15.3972 6.77235C14.9406 7.00247 14.6572 7.46778 14.6572 7.98555V12.8468C14.6572 13.3646 14.9406 13.829 15.3972 14.0608L16.6314 14.6835C16.7989 14.7698 16.9781 14.8113 17.1573 14.8113C17.3723 14.8113 17.5856 14.7504 17.7764 14.6311C18.1256 14.4119 18.3339 14.0321 18.3339 13.6158V7.2182C18.3339 6.80196 18.1256 6.42209 17.7764 6.20213Z" fill="#ADB3CC"/>
<path d="M9.92124 16.6665H5.09453C3.07617 16.6665 1.66699 15.2748 1.66699 13.2824V7.5506C1.66699 5.55737 3.07617 4.1665 5.09453 4.1665H9.92124C11.9396 4.1665 13.3488 5.55737 13.3488 7.5506V13.2824C13.3488 15.2748 11.9396 16.6665 9.92124 16.6665Z" fill="#ADB3CC"/>
</svg>
